<svg xmlns="http://www.w3.org/2000/svg" width="20" height="20" viewBox="0 0 20 20"><g><g><path fill="#135af7" d="M17.292 15.68c.651.655.647 1.457-.008 2.12-.442.446-.912.872-1.33 1.338-.61.684-1.37.905-2.247.855-1.272-.07-2.443-.49-3.572-1.039a19.475 19.475 0 0 1-6.45-5.046c-1.33-1.58-2.427-3.302-3.147-5.242-.352-.937-.601-1.899-.524-2.918.05-.626.283-1.162.745-1.6.5-.475.97-.97 1.461-1.453.638-.63 1.44-.63 2.083-.004.397.39.786.786 1.179 1.179.38.385.76.761 1.141 1.146.672.675.672 1.46.005 2.132-.48.483-.954.966-1.441 1.436-.127.127-.14.23-.074.385.324.77.786 1.453 1.306 2.091 1.047 1.285 2.23 2.427 3.642 3.315.303.188.638.327.954.499.16.09.27.061.4-.074a121.9 121.9 0 0 1 1.453-1.457c.639-.634 1.441-.634 2.083 0 .782.778 1.564 1.556 2.341 2.337zM12.6 6.763a5.15 5.15 0 0 0-2.97-1.513l.213-1.546a6.638 6.638 0 0 1 3.833 1.954 6.925 6.925 0 0 1 1.88 3.71l-1.504.262a5.343 5.343 0 0 0-1.452-2.867zM20 9.368l-1.494.262a9.881 9.881 0 0 0-2.677-5.297c-1.49-1.525-3.377-2.493-5.459-2.792L10.58 0c2.41.345 4.593 1.462 6.318 3.232A11.488 11.488 0 0 1 20 9.368z"/></g></g></svg>