<svg xmlns="http://www.w3.org/2000/svg" width="36" height="38" viewBox="0 0 36 38"><g><g><path fill="#fff" d="M19.03 17.003a.088.088 0 0 1-.067.016.589.589 0 0 1-.42-.199l-2.02-2.308a.563.563 0 0 1 .848-.74l1.484 1.683L20.99 11.5a.575.575 0 0 1 1.049.109.553.553 0 0 1-.045.427l-2.526 4.682a.553.553 0 0 1-.44.285zm14.338 5.052a2.546 2.546 0 1 1-2.313 1.498L29.1 22.038c-.152.285-.285.597-.429.874-.716 1.467-1.443 2.966-1.995 4.464h.127a.564.564 0 1 1 0 1.127h-.553a1.628 1.628 0 0 0 .006 2.043h.552c.316 0 .573.256.573.572a.583.583 0 0 1-.573.572h-.552a1.658 1.658 0 0 0 0 2.037h.552a.564.564 0 1 1 0 1.128h-1.727a3.267 3.267 0 0 1-3.198 2.694h-5.403a3.27 3.27 0 0 1-3.2-2.694h-1.784a.564.564 0 1 1 0-1.128h.614a1.658 1.658 0 0 0 0-2.037h-.614a.575.575 0 0 1-.552-.572.553.553 0 0 1 .552-.572h.614c.229-.288.354-.644.354-1.012 0-.372-.124-.733-.354-1.025h-.614a.564.564 0 1 1 0-1.128h.16a40.445 40.445 0 0 0-1.34-3.065l-1.523 1.683c.308.427.472.94.47 1.465a2.551 2.551 0 1 1-2.548-2.565 2.59 2.59 0 0 1 1.235.337L9.787 23.2a.467.467 0 0 1-.042-.102c-1.407-2.894-2.852-5.876-3.024-8.737l-1.49.017a2.548 2.548 0 1 1-.016-1.128l1.506-.016a14.295 14.295 0 0 1 3.613-9.057 2.576 2.576 0 0 1-.506-1.515 2.543 2.543 0 0 1 4.596-1.517A11.382 11.382 0 0 1 19.19.102c4.074 0 7.703 2.17 9.978 5.505l1.296-.962a2.606 2.606 0 0 1-.21-1.008 2.546 2.546 0 1 1 .893 1.92l-1.382 1.01a14.61 14.61 0 0 1 1.843 5.914 2.548 2.548 0 0 1-.505 5.05.194.194 0 0 1-.094-.017 30.619 30.619 0 0 1-1.404 3.488l2.153 1.658a2.529 2.529 0 0 1 1.617-.605zM31.39 3.637a1.423 1.423 0 1 0 2.847-.017 1.423 1.423 0 0 0-2.847.017zM6.716 28.874A1.423 1.423 0 1 0 5.392 28c.223.533.746.878 1.324.874zm21.97-8.596a29.75 29.75 0 0 0 1.236-3.057 2.529 2.529 0 0 1-1.338-1.968l-3.28-.354a6.247 6.247 0 0 1-.86 2.104zm-13.11-3.02a5.105 5.105 0 1 0 7.22-7.216 5.105 5.105 0 0 0-7.22 7.216zm15.531-3.707a1.418 1.418 0 1 0 1.42 1.417 1.426 1.426 0 0 0-1.42-1.417zm-.647-1.042a13.446 13.446 0 0 0-1.622-5.271l-4.325 3.184c.592.974.905 2.091.906 3.23.004.04.004.08 0 .12l3.29.37a2.537 2.537 0 0 1 1.757-1.633zM14.88 2.197a2.56 2.56 0 0 1-.716 2.291l2.231 3.593a6.16 6.16 0 0 1 7.44 1.432l4.423-3.231c-2.073-3.068-5.365-5.036-9.069-5.036a10.3 10.3 0 0 0-4.309.95zm-3.498-.537a1.415 1.415 0 1 0 0 0zm-.189 3.24a13.156 13.156 0 0 0-3.327 8.305l5.116-.066a6.222 6.222 0 0 1 2.468-4.48L13.21 5.065a2.6 2.6 0 0 1-.83.139 2.562 2.562 0 0 1-1.188-.304zM2.741 15.253a1.423 1.423 0 0 0 1.416-1.415 1.415 1.415 0 1 0-1.416 1.415zm7.872 7.056l4-4.422a6.24 6.24 0 0 1-1.629-3.593l-5.124.05c.169 2.526 1.451 5.27 2.753 7.965zm2.786 6.194a2.844 2.844 0 0 1 0 2.037h11.564a2.844 2.844 0 0 1 0-2.037zm8.485 7.894a2.134 2.134 0 0 0 2.045-1.548h-9.496a2.134 2.134 0 0 0 2.048 1.548zm3.08-2.676a2.844 2.844 0 0 1 0-2.037H13.387a2.844 2.844 0 0 1 0 2.037zm3.202-12.39l-4.422-3.436a6.233 6.233 0 0 1-8.291.744l-4.31 4.762a41.129 41.129 0 0 1 1.725 3.983h12.61a44.703 44.703 0 0 1 2.188-4.975c.177-.37.354-.724.5-1.078zm5.208 4.699a1.415 1.415 0 1 0 0 0z"/></g></g></svg>