<svg xmlns="http://www.w3.org/2000/svg" width="36" height="36" viewBox="0 0 36 36"><g><g><path fill="#135af7" d="M33.844 32.312c0 .846-.686 1.532-1.532 1.532H3.652a1.532 1.532 0 0 1-1.532-1.532V7.24h31.724zM2.12 3.649a1.542 1.542 0 0 1 1.532-1.532h28.66c.845.006 1.528.689 1.532 1.532v2.564H2.12zM32.322 1.1H3.652A2.552 2.552 0 0 0 1.1 3.652v28.67a2.555 2.555 0 0 0 2.552 2.552h28.67a2.555 2.555 0 0 0 2.56-2.552V3.652a2.555 2.555 0 0 0-2.56-2.552z"/><path fill="none" stroke="#135af7" stroke-miterlimit="50" stroke-width=".2" d="M33.844 32.312c0 .846-.686 1.532-1.532 1.532H3.652a1.532 1.532 0 0 1-1.532-1.532V7.24h31.724zM2.12 3.649a1.542 1.542 0 0 1 1.532-1.532h28.66c.845.006 1.528.689 1.532 1.532v2.564H2.12zM32.322 1.1H3.652A2.552 2.552 0 0 0 1.1 3.652v28.67a2.555 2.555 0 0 0 2.552 2.552h28.67a2.555 2.555 0 0 0 2.56-2.552V3.652a2.555 2.555 0 0 0-2.56-2.552z"/></g><g><path fill="#135af7" d="M31.321 3.824a.492.492 0 0 0-.151.35.55.55 0 0 0 .151.365.508.508 0 0 0 .723 0 .506.506 0 0 0 .15-.366.462.462 0 0 0-.15-.349.5.5 0 0 0-.723 0z"/><path fill="none" stroke="#135af7" stroke-miterlimit="50" stroke-width=".2" d="M31.321 3.824a.492.492 0 0 0-.151.35.55.55 0 0 0 .151.365.508.508 0 0 0 .723 0 .506.506 0 0 0 .15-.366.462.462 0 0 0-.15-.349.5.5 0 0 0-.723 0z"/></g><g><path fill="#135af7" d="M28.868 3.67a.497.497 0 0 0-.508.503.508.508 0 1 0 .868-.358.5.5 0 0 0-.36-.145z"/><path fill="none" stroke="#135af7" stroke-miterlimit="50" stroke-width=".2" d="M28.868 3.67a.497.497 0 0 0-.508.503.508.508 0 1 0 .868-.358.5.5 0 0 0-.36-.145z"/></g><g><path fill="#135af7" d="M25.69 3.826a.486.486 0 0 0-.13.349.55.55 0 0 0 .143.365.516.516 0 1 0-.014-.714z"/><path fill="none" stroke="#135af7" stroke-miterlimit="50" stroke-width=".2" d="M25.69 3.826a.486.486 0 0 0-.13.349.55.55 0 0 0 .143.365.516.516 0 1 0-.014-.714z"/></g><g><path fill="#00d280" d="M9.9 12.235l2.934 3.416H6.978zm13.229 3.426l2.932-3.44 2.947 3.44zm-4.013 12.593l3.3-11.568h6.597zm-5.572-11.562l3.296 11.577-9.862-11.583zm.409-1.305l-2.93-3.44h5.849zm8.076 0l-2.94-3.44h5.88zm-6.988.274l2.948-3.448 2.94 3.448zm6.313 1.025L17.993 28.5l-3.386-11.814zm-15.994-.44c.01.02.017.04.022.06.002.028.01.054.022.078v.016a.289.289 0 0 1 .038.06l.039.045 12.124 14.204a.55.55 0 0 0 .151.123h.025a.41.41 0 0 0 .38 0h.046a.868.868 0 0 0 .145-.123l12.15-14.204a.258.258 0 0 0 .038-.044.484.484 0 0 1 .038-.06v-.017a.446.446 0 0 0 .03-.077c0-.03.017-.044.017-.06v-.152c0-.016-.016-.03-.016-.046a.226.226 0 0 0-.03-.077v-.014a.247.247 0 0 0-.039-.06.275.275 0 0 0-.038-.047l-4.042-4.74a.569.569 0 0 0-.173-.137.49.49 0 0 0-.214-.044H9.896a.486.486 0 0 0-.453.275L5.48 15.851c-.017.016-.025.033-.039.047a.371.371 0 0 0-.038.06v.014c-.017.016-.017.046-.022.077l-.022.046z"/><path fill="none" stroke="#00d280" stroke-miterlimit="50" stroke-width=".2" d="M9.9 12.235l2.934 3.416H6.978zm13.229 3.426l2.932-3.44 2.947 3.44zm-4.013 12.593l3.3-11.568h6.597zm-5.572-11.562l3.296 11.577-9.862-11.583zm.409-1.305l-2.93-3.44h5.849zm8.076 0l-2.94-3.44h5.88zm-6.988.274l2.948-3.448 2.94 3.448zm6.313 1.025L17.993 28.5l-3.386-11.814zm-15.994-.44c.01.02.017.04.022.06.002.028.01.054.022.078v.016a.289.289 0 0 1 .038.06l.039.045 12.124 14.204a.55.55 0 0 0 .151.123h.025a.41.41 0 0 0 .38 0h.046a.868.868 0 0 0 .145-.123l12.15-14.204a.258.258 0 0 0 .038-.044.484.484 0 0 1 .038-.06v-.017a.446.446 0 0 0 .03-.077c0-.03.017-.044.017-.06v-.152c0-.016-.016-.03-.016-.046a.226.226 0 0 0-.03-.077v-.014a.247.247 0 0 0-.039-.06.275.275 0 0 0-.038-.047l-4.042-4.74a.569.569 0 0 0-.173-.137.49.49 0 0 0-.214-.044H9.896a.486.486 0 0 0-.453.275L5.48 15.851c-.017.016-.025.033-.039.047a.371.371 0 0 0-.038.06v.014c-.017.016-.017.046-.022.077l-.022.046z"/></g></g></svg>