<svg xmlns="http://www.w3.org/2000/svg" width="34" height="34" viewBox="0 0 34 34"><g><g><g><path fill="#135af7" d="M25.032 32.753H1.394V20.446a.493.493 0 0 0-.504-.496.499.499 0 0 0-.51.496v12.803c0 .281.228.51.51.512h24.142a.504.504 0 0 0 0-1.008z"/></g><g><path fill="#135af7" d="M.89 5.438a.501.501 0 0 0 .504-.496V1.4h3.025a.504.504 0 0 0 .5-.51.504.504 0 0 0-.5-.509H.889A.51.51 0 0 0 .38.89v4.052a.507.507 0 0 0 .51.496z"/></g><g><path fill="#135af7" d="M33.252.38H20.48a.51.51 0 0 0 0 1.02h12.27v4.038h-7.717a.518.518 0 1 0 0 1.036h7.71v18.558a.504.504 0 1 0 1.005 0V.89a.504.504 0 0 0-.496-.51z"/></g><g><path fill="#135af7" d="M30.951 3.774a.512.512 0 0 0 .15-.346.518.518 0 0 0-.15-.36.512.512 0 0 0-.72 0 .554.554 0 0 0-.141.36c.006.128.055.25.141.346.097.099.23.153.369.15a.48.48 0 0 0 .351-.15z"/></g><g><path fill="#135af7" d="M28.323 3.431a.504.504 0 0 0-.502-.51.504.504 0 1 0 0 1.006.501.501 0 0 0 .502-.496z"/></g><g><path fill="#135af7" d="M25.031 3.925a.482.482 0 0 0 .36-.15.515.515 0 0 0 .153-.346.573.573 0 0 0-.158-.377.52.52 0 0 0-.712.017.507.507 0 0 0 0 .706.482.482 0 0 0 .357.15z"/></g><g><path fill="#135af7" d="M28.466 32.017l-4.269-4.273 3.535-3.54 4.276 4.273a2.49 2.49 0 0 1 0 3.54 2.514 2.514 0 0 1-3.542 0zm-3.207-10.306l1.768 1.77-3.55 3.544-1.773-1.757zm-3.488-1.696l1.872 1.87-1.767 1.755-1.867-1.857c.326-.262.637-.542.93-.84.295-.293.573-.603.832-.928zm-17.148.202C.32 15.91.32 8.927 4.625 4.621 8.93.315 15.91.315 20.215 4.621c4.306 4.307 4.306 11.289.002 15.596-4.307 4.305-11.287 4.305-15.594 0zm20.984.424a.532.532 0 0 0-.712 0l-.534.523-1.98-1.98a12.063 12.063 0 1 0-3.197 3.196l1.98 1.98-.523.555a.482.482 0 0 0 0 .706l7.113 7.116a3.515 3.515 0 0 0 4.969-4.97z"/></g><g><path fill="#00d280" d="M12.448 6.65c.524 1.815 1.297 4.67 1.297 5.82a1.302 1.302 0 1 1-2.604 0c0-1.16.773-4.013 1.307-5.829zm0 8.137a2.324 2.324 0 0 0 2.31-2.327c0-1.878-1.756-7.478-1.83-7.7a.512.512 0 0 0-.48-.36.52.52 0 0 0-.487.36c-.07.224-1.831 5.817-1.831 7.7a2.327 2.327 0 0 0 2.318 2.327z"/></g><g><path fill="#135af7" d="M20.48 12.43v-.03a7.975 7.975 0 0 0-2.349-5.673 8.554 8.554 0 0 0-1.84-1.385.504.504 0 0 0-.689.21.496.496 0 0 0 .202.679 7.202 7.202 0 0 1 1.615 1.213 6.958 6.958 0 0 1 2.025 4.474h-1.48a.504.504 0 1 0 0 1.005h1.472a6.972 6.972 0 0 1-6.507 6.473v-1.47a.504.504 0 1 0-1.005 0v1.47a6.983 6.983 0 0 1-6.463-6.47h1.471a.504.504 0 1 0 0-1.006H5.456a6.955 6.955 0 0 1 2.033-4.473 7.147 7.147 0 0 1 1.607-1.213.493.493 0 0 0 .202-.679.499.499 0 0 0-.684-.21A8.587 8.587 0 0 0 6.769 6.73 8 8 0 0 0 4.42 12.4v.06a8 8 0 0 0 7.977 7.972h.053a8.01 8.01 0 0 0 8.033-7.971s-.003-.014-.003-.03z"/></g></g></g></svg>