<svg xmlns="http://www.w3.org/2000/svg" width="21" height="23" viewBox="0 0 21 23"><g><g><path fill="#aeb7c1" d="M8.769 2.55c3.54 0 6.422 2.936 6.422 6.544 0 3.61-2.881 6.545-6.422 6.545-3.542 0-6.422-2.936-6.422-6.545 0-3.608 2.88-6.544 6.422-6.544zM20.54 20.215l-5.121-5.428a8.928 8.928 0 0 0 2.038-5.693C17.457 4.212 13.56.24 8.77.24 3.978.24.08 4.212.08 9.094c0 4.883 3.898 8.855 8.689 8.855a8.485 8.485 0 0 0 4.977-1.602l5.161 5.47a1.114 1.114 0 0 0 1.602.031c.45-.441.465-1.173.031-1.633z"/></g></g></svg>