<svg xmlns="http://www.w3.org/2000/svg" width="40" height="29" viewBox="0 0 40 29"><g><g><g><path fill="#135af7" d="M35.521 4.44h-2.298a.605.605 0 0 0 0 1.21h2.298v17.498H4.48V5.65h26.002a.605.605 0 0 0 0-1.21H4.48v-.847c0-1 .813-1.814 1.814-1.814h27.413c1 0 1.814.814 1.814 1.814zM23.276 25.233h-6.541v-.886h6.54zm15.43-2.087h-1.975V3.593A3.027 3.027 0 0 0 33.707.57H6.294A3.027 3.027 0 0 0 3.27 3.593v19.553H1.295a.605.605 0 0 0-.605.604v1.452a3.027 3.027 0 0 0 3.024 3.023h4.998a.605.605 0 1 0 0-1.21H3.714c-1 0-1.815-.813-1.815-1.813v-.847h13.626v1.492c0 .334.271.605.605.605h7.74c.334 0 .605-.271.605-.605v-1.492h13.626v.847c0 1-.813 1.814-1.814 1.814H11.293a.605.605 0 1 0 0 1.21h24.994a3.027 3.027 0 0 0 3.024-3.024V23.75a.605.605 0 0 0-.605-.604z"/></g><g><path fill="#135af7" d="M21.295 2.5h-2.58a.605.605 0 1 0 0 1.21h2.58a.605.605 0 1 0 0-1.21z"/></g><g><path fill="#00d280" d="M28.145 19.462a.46.46 0 0 1-.648.059l-1.474-1.224a.458.458 0 0 1-.06-.646.462.462 0 0 1 .65-.06l1.474 1.225a.458.458 0 0 1 .059.646zm-.058-8.264l-1.474 1.224a.46.46 0 0 1-.59-.705l1.474-1.224a.462.462 0 0 1 .649.059.458.458 0 0 1-.06.646zm.41 3.809a.46.46 0 0 1-.46.459h-1.72a.46.46 0 1 1 0-.918h1.72a.46.46 0 0 1 .46.459zm-3.792-5.018v10.036a.459.459 0 0 1-.459.46h-2.203a.459.459 0 0 1-.46-.46v-.682l-4.957-1.81v2.615a.459.459 0 0 1-.46.458h-.734a.46.46 0 0 1-.439-.323l-.88-2.859h-.456c-.76 0-1.377-.617-1.377-1.377v-2.08c0-.76.618-1.377 1.377-1.377h2.673l5.254-1.92V9.99c0-.254.205-.459.459-.459h2.203c.254 0 .46.205.46.459zm-8.99 7.435h-.643l.643 2.058zm.244-.918v-2.998h-2.301a.46.46 0 0 0-.46.459v2.08a.46.46 0 0 0 .46.46zm5.627-4.858l-4.72 1.722v3.274l4.72 1.722zm2.202-1.2h-1.295v9.118h1.295z"/></g></g></g></svg>